<svg width="64" height="61" viewBox="0 0 64 61" fill="none" xmlns="http://www.w3.org/2000/svg">
<path d="M30.25 5.5C36.8141 5.5 43.1094 8.10758 47.7509 12.7491C52.3924 17.3906 55 23.6859 55 30.25C55 36.9958 52.305 43.109 47.9243 47.575C45.6231 49.9299 42.8737 51.8001 39.8382 53.0753C36.8027 54.3506 33.5425 55.005 30.25 55C26.9998 55 23.7814 54.3598 20.7786 53.116C17.7758 51.8722 15.0474 50.0491 12.7491 47.7509C10.4509 45.4526 8.62779 42.7242 7.38398 39.7214C6.14018 36.7186 5.5 33.5002 5.5 30.25C5.5 26.9998 6.14018 23.7814 7.38398 20.7786C8.62779 17.7758 10.4509 15.0474 12.7491 12.7491C15.0474 10.4509 17.7758 8.62778 20.7786 7.38398C23.7814 6.14018 26.9998 5.5 30.25 5.5ZM47.6465 55C49.159 53.9357 50.5643 52.7395 51.854 51.425C57.4045 45.7757 60.51 38.1698 60.5 30.25C60.5 13.5438 46.9562 0 30.25 0C13.5438 0 0 13.5438 0 30.25C0 46.9562 13.5438 60.5 30.25 60.5H63.25V55H47.6465ZM30.25 13.75C29.5207 13.75 28.8212 14.0397 28.3055 14.5555C27.7897 15.0712 27.5 15.7707 27.5 16.5C27.5 17.2293 27.7897 17.9288 28.3055 18.4445C28.8212 18.9603 29.5207 19.25 30.25 19.25C30.9793 19.25 31.6788 18.9603 32.1945 18.4445C32.7103 17.9288 33 17.2293 33 16.5C33 15.7707 32.7103 15.0712 32.1945 14.5555C31.6788 14.0397 30.9793 13.75 30.25 13.75ZM22 16.5C22 14.312 22.8692 12.2135 24.4164 10.6664C25.9635 9.11919 28.062 8.25 30.25 8.25C32.438 8.25 34.5365 9.11919 36.0836 10.6664C37.6308 12.2135 38.5 14.312 38.5 16.5C38.5 18.688 37.6308 20.7865 36.0836 22.3336C34.5365 23.8808 32.438 24.75 30.25 24.75C28.062 24.75 25.9635 23.8808 24.4164 22.3336C22.8692 20.7865 22 18.688 22 16.5ZM16.5 27.5C15.7707 27.5 15.0712 27.7897 14.5555 28.3055C14.0397 28.8212 13.75 29.5207 13.75 30.25C13.75 30.9793 14.0397 31.6788 14.5555 32.1945C15.0712 32.7103 15.7707 33 16.5 33C17.2293 33 17.9288 32.7103 18.4445 32.1945C18.9603 31.6788 19.25 30.9793 19.25 30.25C19.25 29.5207 18.9603 28.8212 18.4445 28.3055C17.9288 27.7897 17.2293 27.5 16.5 27.5ZM8.25 30.25C8.25 29.1666 8.46339 28.0938 8.87799 27.0929C9.2926 26.0919 9.90029 25.1825 10.6664 24.4164C11.4325 23.6503 12.3419 23.0426 13.3429 22.628C14.3438 22.2134 15.4166 22 16.5 22C17.5834 22 18.6562 22.2134 19.6571 22.628C20.6581 23.0426 21.5675 23.6503 22.3336 24.4164C23.0997 25.1825 23.7074 26.0919 24.122 27.0929C24.5366 28.0938 24.75 29.1666 24.75 30.25C24.75 32.438 23.8808 34.5365 22.3336 36.0836C20.7865 37.6308 18.688 38.5 16.5 38.5C14.312 38.5 12.2135 37.6308 10.6664 36.0836C9.11919 34.5365 8.25 32.438 8.25 30.25ZM44 27.5C43.2707 27.5 42.5712 27.7897 42.0555 28.3055C41.5397 28.8212 41.25 29.5207 41.25 30.25C41.25 30.9793 41.5397 31.6788 42.0555 32.1945C42.5712 32.7103 43.2707 33 44 33C44.7293 33 45.4288 32.7103 45.9445 32.1945C46.4603 31.6788 46.75 30.9793 46.75 30.25C46.75 29.5207 46.4603 28.8212 45.9445 28.3055C45.4288 27.7897 44.7293 27.5 44 27.5ZM35.75 30.25C35.75 28.062 36.6192 25.9635 38.1664 24.4164C39.7135 22.8692 41.812 22 44 22C46.188 22 48.2865 22.8692 49.8336 24.4164C51.3808 25.9635 52.25 28.062 52.25 30.25C52.25 32.438 51.3808 34.5365 49.8336 36.0836C48.2865 37.6308 46.188 38.5 44 38.5C41.812 38.5 39.7135 37.6308 38.1664 36.0836C36.6192 34.5365 35.75 32.438 35.75 30.25ZM30.25 41.25C29.5207 41.25 28.8212 41.5397 28.3055 42.0555C27.7897 42.5712 27.5 43.2707 27.5 44C27.5 44.7293 27.7897 45.4288 28.3055 45.9445C28.8212 46.4603 29.5207 46.75 30.25 46.75C30.9793 46.75 31.6788 46.4603 32.1945 45.9445C32.7103 45.4288 33 44.7293 33 44C33 43.2707 32.7103 42.5712 32.1945 42.0555C31.6788 41.5397 30.9793 41.25 30.25 41.25ZM22 44C22 41.812 22.8692 39.7135 24.4164 38.1664C25.9635 36.6192 28.062 35.75 30.25 35.75C32.438 35.75 34.5365 36.6192 36.0836 38.1664C37.6308 39.7135 38.5 41.812 38.5 44C38.5 46.188 37.6308 48.2865 36.0836 49.8336C34.5365 51.3808 32.438 52.25 30.25 52.25C28.062 52.25 25.9635 51.3808 24.4164 49.8336C22.8692 48.2865 22 46.188 22 44Z" fill="#3361AE"/>
</svg>