<svg width="640" height="640" viewBox="0 0 640 640" fill="none" xmlns="http://www.w3.org/2000/svg">
<g clip-path="url(#clip0_334_4283)">
<path d="M320 80.0001C383.652 80.0001 444.697 105.286 489.705 150.294C534.714 195.303 560 256.348 560 320C560 385.413 533.867 444.693 491.387 488C469.073 510.835 442.412 528.971 412.976 541.337C383.541 553.703 351.927 560.048 320 560C288.483 560 257.274 553.792 228.156 541.731C199.038 529.67 172.58 511.992 150.294 489.706C128.008 467.42 110.33 440.962 98.2688 411.844C86.2076 382.726 79.9998 351.517 79.9998 320C79.9998 288.483 86.2076 257.274 98.2688 228.156C110.33 199.038 128.008 172.58 150.294 150.294C172.58 128.008 199.038 110.33 228.156 98.269C257.274 86.2079 288.483 80.0001 320 80.0001ZM488.693 560C503.36 549.68 516.987 538.08 529.493 525.333C583.316 470.552 613.431 396.798 613.333 320C613.333 158 482 26.6667 320 26.6667C158 26.6667 26.6665 158 26.6665 320C26.6665 482 158 613.333 320 613.333H640V560H488.693ZM320 160C312.927 160 306.145 162.81 301.144 167.811C296.143 172.812 293.333 179.594 293.333 186.667C293.333 193.739 296.143 200.522 301.144 205.523C306.145 210.524 312.927 213.333 320 213.333C327.072 213.333 333.855 210.524 338.856 205.523C343.857 200.522 346.667 193.739 346.667 186.667C346.667 179.594 343.857 172.812 338.856 167.811C333.855 162.81 327.072 160 320 160ZM240 186.667C240 165.449 248.428 145.101 263.431 130.098C278.434 115.095 298.783 106.667 320 106.667C341.217 106.667 361.565 115.095 376.568 130.098C391.571 145.101 400 165.449 400 186.667C400 207.884 391.571 228.232 376.568 243.235C361.565 258.238 341.217 266.667 320 266.667C298.783 266.667 278.434 258.238 263.431 243.235C248.428 228.232 240 207.884 240 186.667ZM186.667 293.333C179.594 293.333 172.811 296.143 167.81 301.144C162.809 306.145 160 312.928 160 320C160 327.072 162.809 333.855 167.81 338.856C172.811 343.857 179.594 346.667 186.667 346.667C193.739 346.667 200.522 343.857 205.523 338.856C210.524 333.855 213.333 327.072 213.333 320C213.333 312.928 210.524 306.145 205.523 301.144C200.522 296.143 193.739 293.333 186.667 293.333ZM106.667 320C106.667 309.494 108.736 299.091 112.756 289.385C116.777 279.679 122.669 270.86 130.098 263.432C137.527 256.003 146.346 250.11 156.052 246.09C165.758 242.069 176.161 240 186.667 240C197.172 240 207.575 242.069 217.281 246.09C226.987 250.11 235.806 256.003 243.235 263.432C250.664 270.86 256.557 279.679 260.577 289.385C264.597 299.091 266.667 309.494 266.667 320C266.667 341.217 258.238 361.566 243.235 376.569C228.232 391.572 207.884 400 186.667 400C165.449 400 145.101 391.572 130.098 376.569C115.095 361.566 106.667 341.217 106.667 320ZM453.333 293.333C446.261 293.333 439.478 296.143 434.477 301.144C429.476 306.145 426.667 312.928 426.667 320C426.667 327.072 429.476 333.855 434.477 338.856C439.478 343.857 446.261 346.667 453.333 346.667C460.406 346.667 467.188 343.857 472.189 338.856C477.19 333.855 480 327.072 480 320C480 312.928 477.19 306.145 472.189 301.144C467.188 296.143 460.406 293.333 453.333 293.333ZM373.333 320C373.333 298.783 381.762 278.434 396.765 263.432C411.768 248.429 432.116 240 453.333 240C474.551 240 494.899 248.429 509.902 263.432C524.905 278.434 533.333 298.783 533.333 320C533.333 341.217 524.905 361.566 509.902 376.569C494.899 391.572 474.551 400 453.333 400C432.116 400 411.768 391.572 396.765 376.569C381.762 361.566 373.333 341.217 373.333 320ZM320 426.667C312.927 426.667 306.145 429.476 301.144 434.477C296.143 439.478 293.333 446.261 293.333 453.333C293.333 460.406 296.143 467.189 301.144 472.19C306.145 477.191 312.927 480 320 480C327.072 480 333.855 477.191 338.856 472.19C343.857 467.189 346.667 460.406 346.667 453.333C346.667 446.261 343.857 439.478 338.856 434.477C333.855 429.476 327.072 426.667 320 426.667ZM240 453.333C240 432.116 248.428 411.768 263.431 396.765C278.434 381.762 298.783 373.333 320 373.333C341.217 373.333 361.565 381.762 376.568 396.765C391.571 411.768 400 432.116 400 453.333C400 474.551 391.571 494.899 376.568 509.902C361.565 524.905 341.217 533.333 320 533.333C298.783 533.333 278.434 524.905 263.431 509.902C248.428 494.899 240 474.551 240 453.333Z" fill="#9C9C9C" fill-opacity="0.3"/>
</g>
<defs>
<clipPath id="clip0_334_4283">
<rect width="640" height="640" fill="white"/>
</clipPath>
</defs>
</svg>
